<svg height="2126" width="720" xmlns="http://www.w3.org/2000/svg">
<rect height="2126" fill="#555" width="720"></rect>
<text fill="#7f7" font-family="Courier New" font-size="12" xml:space="preserve">
<tspan x="10" y="26"></tspan>
<tspan x="10" y="42">&gt; npmdoc-meanio@0.0.1 test /home/travis/build/npmdoc/node-npmdoc-meanio</tspan>
<tspan x="10" y="58">&gt; (set -e; export PORT=$(utility2 shServerPortRandom); utility2 test test.js)</tspan>
<tspan x="10" y="74"></tspan>
<tspan x="10" y="90"></tspan>
<tspan x="10" y="106">[MODE_BUILD=npmTest] - 2017-04-07T06:04:00Z - npm-testing /home/travis/build/npmdoc/node-npmdoc-\</tspan>
<tspan x="10" y="122">meanio</tspan>
<tspan x="10" y="138"></tspan>
<tspan x="10" y="154"></tspan>
<tspan x="10" y="170">covering $ /home/travis/.nvm/versions/node/v6.10.2/bin/node /home/travis/build/npmdoc/node-npmdo\</tspan>
<tspan x="10" y="186">c-meanio/test.js</tspan>
<tspan x="10" y="202">merging file:///home/travis/build/npmdoc/node-npmdoc-meanio/tmp/build/test-report.json to test-r\</tspan>
<tspan x="10" y="218">eport</tspan>
<tspan x="10" y="234">&gt; server listening on http-port 52078</tspan>
<tspan x="10" y="250">WARNING: NODE_ENV value of 'test' did not match any deployment config file names.</tspan>
<tspan x="10" y="266">WARNING: See https://github.com/lorenwest/node-config/wiki/Strict-Mode</tspan>
<tspan x="10" y="282">WARNING: No configurations found in configuration directory:/home/travis/build/npmdoc/node-npmdo\</tspan>
<tspan x="10" y="298">c-meanio/config</tspan>
<tspan x="10" y="314">WARNING: To disable this warning set SUPPRESS_NO_CONFIG_WARNING in the environment.</tspan>
<tspan x="10" y="330">Error: Invalid mongodb uri. Missing hostname</tspan>
<tspan x="10" y="346">**Could not connect to MongoDB. Please ensure mongod is running and restart MEAN app.**</tspan>
<tspan x="10" y="362">created apidoc file:///home/travis/build/npmdoc/node-npmdoc-meanio/tmp/build/apidoc.html</tspan>
<tspan x="10" y="378"></tspan>
<tspan x="10" y="394"></tspan>
<tspan x="10" y="410">browserTest - created electron entry-page /home/travis/build/npmdoc/node-npmdoc-meanio/tmp/elect\</tspan>
<tspan x="10" y="426">ron.15b47032ac40.08336a4314bb.html</tspan>
<tspan x="10" y="442"></tspan>
<tspan x="10" y="458">[node test-case 1 of 6 passed] - testCase_buildLib_default</tspan>
<tspan x="10" y="474">[node test-case 2 of 6 passed] - testCase_buildReadme_default</tspan>
<tspan x="10" y="490">[node test-case 3 of 6 passed] - testCase_buildTest_default</tspan>
<tspan x="10" y="506"></tspan>
<tspan x="10" y="522">browserTest - created electron entry-page /home/travis/build/npmdoc/node-npmdoc-meanio/tmp/elect\</tspan>
<tspan x="10" y="538">ron.15b47032aed0.d2a1673d1669c.html</tspan>
<tspan x="10" y="554"></tspan>
<tspan x="10" y="570">Xlib:  extension "RANDR" missing on display ":99.0".</tspan>
<tspan x="10" y="586">Xlib:  extension "RANDR" missing on display ":99.0".</tspan>
<tspan x="10" y="602">&gt; server listening on http-port 59029</tspan>
<tspan x="10" y="618">merging file:///home/travis/build/npmdoc/node-npmdoc-meanio/tmp/build/test-report.json to test-r\</tspan>
<tspan x="10" y="634">eport</tspan>
<tspan x="10" y="650">Xlib:  extension "RANDR" missing on display ":99.0".</tspan>
<tspan x="10" y="666">[6410:0407/060402:WARNING:audio_manager.cc(314)] Multiple instances of AudioManager detected</tspan>
<tspan x="10" y="682">[6410:0407/060402:WARNING:audio_manager.cc(275)] Multiple instances of AudioManager detected</tspan>
<tspan x="10" y="698">merging file:///home/travis/build/npmdoc/node-npmdoc-meanio/tmp/build/test-report.json to test-r\</tspan>
<tspan x="10" y="714">eport</tspan>
<tspan x="10" y="730">Xlib:  extension "RANDR" missing on display ":99.0".</tspan>
<tspan x="10" y="746">[6447:0407/060402:ERROR:sandbox_linux.cc(343)] InitializeSandbox() called with multiple threads \</tspan>
<tspan x="10" y="762">in process gpu-process. </tspan>
<tspan x="10" y="778">[6414:0407/060402:WARNING:audio_manager.cc(314)] Multiple instances of AudioManager detected</tspan>
<tspan x="10" y="794">[6414:0407/060402:WARNING:audio_manager.cc(275)] Multiple instances of AudioManager detected</tspan>
<tspan x="10" y="810">[6410:0407/060402:ERROR:browser_gpu_channel_host_factory.cc(131)] Failed to create channel.</tspan>
<tspan x="10" y="826">[6471:0407/060402:ERROR:sandbox_linux.cc(343)] InitializeSandbox() called with multiple threads \</tspan>
<tspan x="10" y="842">in process gpu-process. </tspan>
<tspan x="10" y="858">[6414:0407/060402:ERROR:browser_gpu_channel_host_factory.cc(131)] Failed to create channel.</tspan>
<tspan x="10" y="874"></tspan>
<tspan x="10" y="890">browserTest - opened url /home/travis/build/npmdoc/node-npmdoc-meanio/tmp/build/apidoc.html</tspan>
<tspan x="10" y="906"></tspan>
<tspan x="10" y="922"></tspan>
<tspan x="10" y="938">browserTest - opened url http://127.0.0.1:52078?modeTest=1</tspan>
<tspan x="10" y="954"></tspan>
<tspan x="10" y="970">[6414:0407/060404:INFO:CONSOLE(250)] "----------|-----------|-----------|-----------|-----------\</tspan>
<tspan x="10" y="986">|</tspan>
<tspan x="10" y="1002">File      |   % Stmts |% Branches |   % Funcs |   % Lines |</tspan>
<tspan x="10" y="1018">----------|-----------|-----------|-----------|-----------|</tspan>
<tspan x="10" y="1034">----------|-----------|-----------|-----------|-----------|</tspan>
<tspan x="10" y="1050">All files |       100 |       100 |       100 |       100 |</tspan>
<tspan x="10" y="1066">----------|-----------|-----------|-----------|-----------|</tspan>
<tspan x="10" y="1082">", source: file:///home/travis/build/npmdoc/node-npmdoc-meanio/tmp/electron.15b47032aed0.d2a1673\</tspan>
<tspan x="10" y="1098">d1669c.html (250)</tspan>
<tspan x="10" y="1114">[6414:0407/060404:INFO:CONSOLE(250)] "created coverage file:///tmp/build/coverage.html/index.htm\</tspan>
<tspan x="10" y="1130">l", source: file:///home/travis/build/npmdoc/node-npmdoc-meanio/tmp/electron.15b47032aed0.d2a167\</tspan>
<tspan x="10" y="1146">3d1669c.html (250)</tspan>
<tspan x="10" y="1162">[node test-case 4 of 6 passed] - testCase_buildApp_default</tspan>
<tspan x="10" y="1178"></tspan>
<tspan x="10" y="1194">browserTest - created screenCapture file:///home/travis/build/npmdoc/node-npmdoc-meanio/tmp/buil\</tspan>
<tspan x="10" y="1210">d/screenCapture.npmTest.browser._2Fhome_2Ftravis_2Fbuild_2Fnpmdoc_2Fnode-npmdoc-meanio_2Ftmp_2Fb\</tspan>
<tspan x="10" y="1226">uild_2Fapidoc.html.png</tspan>
<tspan x="10" y="1242"></tspan>
<tspan x="10" y="1258">browserTest - created screenCapture file:///home/travis/build/npmdoc/node-npmdoc-meanio/tmp/buil\</tspan>
<tspan x="10" y="1274">d/screenCapture.npmTest.browser._2Fhome_2Ftravis_2Fbuild_2Fnpmdoc_2Fnode-npmdoc-meanio_2Ftmp_2Fb\</tspan>
<tspan x="10" y="1290">uild_2Fapidoc.html.html</tspan>
<tspan x="10" y="1306"></tspan>
<tspan x="10" y="1322">browserTest - exit-code 0 - /home/travis/build/npmdoc/node-npmdoc-meanio/tmp/build/apidoc.html</tspan>
<tspan x="10" y="1338"></tspan>
<tspan x="10" y="1354">[node test-case 5 of 6 passed] - testCase_buildApidoc_default</tspan>
<tspan x="10" y="1370"></tspan>
<tspan x="10" y="1386">browserTest - created screenCapture file:///home/travis/build/npmdoc/node-npmdoc-meanio/tmp/buil\</tspan>
<tspan x="10" y="1402">d/screenCapture.npmTest.browser..png</tspan>
<tspan x="10" y="1418"></tspan>
<tspan x="10" y="1434">browserTest - created screenCapture file:///home/travis/build/npmdoc/node-npmdoc-meanio/tmp/buil\</tspan>
<tspan x="10" y="1450">d/screenCapture.npmTest.browser..html</tspan>
<tspan x="10" y="1466"></tspan>
<tspan x="10" y="1482">browserTest - exit-code 0 - http://127.0.0.1:52078?modeTest=1</tspan>
<tspan x="10" y="1498"></tspan>
<tspan x="10" y="1514"></tspan>
<tspan x="10" y="1530">browserTest - merged coverage from /home/travis/build/npmdoc/node-npmdoc-meanio/tmp/coverage.npm\</tspan>
<tspan x="10" y="1546">Test.browser.%2F.json</tspan>
<tspan x="10" y="1562"></tspan>
<tspan x="10" y="1578"></tspan>
<tspan x="10" y="1594">browserTest - merging test-report from /home/travis/build/npmdoc/node-npmdoc-meanio/tmp/test-rep\</tspan>
<tspan x="10" y="1610">ort.npmTest.browser.%2F.json</tspan>
<tspan x="10" y="1626"></tspan>
<tspan x="10" y="1642">[node test-case 6 of 6 passed] - testCase_webpage_default</tspan>
<tspan x="10" y="1658">---------------------------|-----------|-----------|-----------|-----------|</tspan>
<tspan x="10" y="1674">File                       |   % Stmts |% Branches |   % Funcs |   % Lines |</tspan>
<tspan x="10" y="1690">---------------------------|-----------|-----------|-----------|-----------|</tspan>
<tspan x="10" y="1706">   node-npmdoc-meanio/     |       100 |       100 |       100 |       100 |</tspan>
<tspan x="10" y="1722">      example.js           |       100 |       100 |       100 |       100 |</tspan>
<tspan x="10" y="1738">      lib.npmdoc_meanio.js |       100 |       100 |       100 |       100 |</tspan>
<tspan x="10" y="1754">      test.js              |       100 |       100 |       100 |       100 |</tspan>
<tspan x="10" y="1770">---------------------------|-----------|-----------|-----------|-----------|</tspan>
<tspan x="10" y="1786">All files                  |       100 |       100 |       100 |       100 |</tspan>
<tspan x="10" y="1802">---------------------------|-----------|-----------|-----------|-----------|</tspan>
<tspan x="10" y="1818"></tspan>
<tspan x="10" y="1834">created coverage file:///home/travis/build/npmdoc/node-npmdoc-meanio/tmp/build/coverage.html/ind\</tspan>
<tspan x="10" y="1850">ex.html</tspan>
<tspan x="10" y="1866">merging file:///home/travis/build/npmdoc/node-npmdoc-meanio/tmp/build/test-report.json to test-r\</tspan>
<tspan x="10" y="1882">eport</tspan>
<tspan x="10" y="1898"></tspan>
<tspan x="10" y="1914">-------------------------------------------------------</tspan>
<tspan x="10" y="1930">| test-report - buildNpmdoc - node - linux v6.10.2 - 2017-04-07T06:03:21.318Z</tspan>
<tspan x="10" y="1946">|   55085 ms            0 failed        6 passed      |</tspan>
<tspan x="10" y="1962">-------------------------------------------------------</tspan>
<tspan x="10" y="1978"></tspan>
<tspan x="10" y="1994">created test-report file:///home/travis/build/npmdoc/node-npmdoc-meanio/tmp/build/test-report.ht\</tspan>
<tspan x="10" y="2010">ml</tspan>
<tspan x="10" y="2026"></tspan>
<tspan x="10" y="2042"></tspan>
<tspan x="10" y="2058">npmTest - 0 failed tests</tspan>
<tspan x="10" y="2074"></tspan>
<tspan x="10" y="2090"></tspan>
<tspan x="10" y="2106">[MODE_BUILD=npmTest] - 2017-04-07T06:04:19Z - EXIT_CODE - 0</tspan>
</text>
</svg>
